<svg width="17" height="14" viewBox="0 0 17 14" fill="none" xmlns="http://www.w3.org/2000/svg">
<path d="M7.82497 0.341725C8.28061 0.797358 8.28061 1.53603 7.82497 1.99166L3.98302 5.83337H15.1667C15.811 5.83337 16.3333 6.35564 16.3333 7C16.3333 7.6443 15.811 8.16669 15.1667 8.16669H3.98302L7.82497 12.0084C8.28061 12.464 8.28061 13.2027 7.82497 13.6583C7.3694 14.1139 6.63067 14.1139 6.17504 13.6583L0.341695 7.825L0.256332 7.72973C0.253613 7.72634 0.250895 7.72296 0.248236 7.71958L0.341695 7.825C0.300433 7.78367 0.262856 7.74006 0.229085 7.6945C0.208243 7.66635 0.188669 7.63729 0.170425 7.60745C0.161725 7.59343 0.153449 7.57912 0.145474 7.56474C0.132787 7.54166 0.120644 7.51792 0.109287 7.49363C0.0999833 7.47376 0.0912234 7.45358 0.0831281 7.43322C0.0738849 7.41014 0.0654875 7.38713 0.0578151 7.36368C0.0521967 7.34635 0.0468199 7.3284 0.0418057 7.31034C0.0347978 7.28521 0.0287565 7.2599 0.023561 7.23428C0.0195133 7.21392 0.0158886 7.19356 0.0128679 7.17326C0.0094244 7.15097 0.00670583 7.12801 0.00465179 7.10482C0.00223527 7.07703 0.000724954 7.04984 0.000241651 7.02259C6.04129e-05 7.01504 0 7.00755 0 7L0.000241651 6.97861C0.000724954 6.951 0.00217486 6.9234 0.00465179 6.89591L0 7C0 6.94098 0.00441014 6.88292 0.0128679 6.82619C0.0158886 6.80638 0.0195133 6.78608 0.0236214 6.76578C0.0287565 6.74016 0.0347978 6.71485 0.0416849 6.6899C0.04682 6.67166 0.0521967 6.65371 0.0580567 6.63583C0.0654875 6.61294 0.0738849 6.5898 0.0829468 6.56708C0.0912234 6.54642 0.0999833 6.52624 0.109287 6.50631C0.120644 6.48214 0.132787 6.45834 0.145716 6.43502C0.153449 6.42088 0.161725 6.40663 0.170304 6.39255C0.188669 6.36271 0.208243 6.33371 0.229025 6.30568C0.235368 6.29698 0.241833 6.28852 0.248418 6.28012C0.277295 6.24345 0.308528 6.20829 0.341695 6.17506L6.17504 0.341725C6.63067 -0.113908 7.3694 -0.113908 7.82497 0.341725Z" fill="black"/>
</svg>
