<svg width="24" height="22" viewBox="0 0 24 22" fill="none" xmlns="http://www.w3.org/2000/svg">
<path fill-rule="evenodd" clip-rule="evenodd" d="M0.536834 10.4989C0.536834 4.83902 5.82585 0.5 12.0184 0.5C18.211 0.5 23.5 4.83902 23.5 10.4989C23.5 16.1589 18.211 20.4979 12.0184 20.4979C10.6453 20.4979 9.32539 20.288 8.10042 19.9013C6.65558 21.2498 4.55627 21.898 1.98825 21.9989C0.942147 22.04 0.187092 20.9519 0.625119 19.978C1.24652 18.5866 2.04942 16.9915 2.14463 15.6002C1.1278 14.1195 0.536834 12.3721 0.536834 10.4989ZM12.0184 2.5C6.63335 2.5 2.53683 6.21891 2.53683 10.4989C2.53683 12.0359 3.05147 13.4778 3.95869 14.6996C4.08671 14.872 4.15584 15.081 4.15584 15.2957C4.15584 16.9295 3.50457 18.471 2.84141 19.9339C4.89748 19.7155 6.24632 19.0571 7.05967 18.1C7.33283 17.7786 7.77835 17.6631 8.17326 17.8114C9.34547 18.2516 10.6458 18.4979 12.0184 18.4979C17.4035 18.4979 21.5 14.779 21.5 10.4989C21.5 6.21891 17.4035 2.5 12.0184 2.5Z" fill="#8E8E93"/>
</svg>
